<svg width="48" height="48" viewBox="0 0 48 48" fill="none" xmlns="http://www.w3.org/2000/svg">
<g clip-path="url(#clip0_3359_15)">
<path d="M44.5714 24C44.5714 12.6387 35.3613 3.42857 24 3.42857C12.6387 3.42857 3.42857 12.6387 3.42857 24C3.42857 35.3613 12.6387 44.5714 24 44.5714V48C10.7452 48 0 37.2548 0 24C0 10.7452 10.7452 0 24 0C37.2548 0 48 10.7452 48 24C48 37.2548 37.2548 48 24 48V44.5714C35.3613 44.5714 44.5714 35.3613 44.5714 24Z" fill="#FF0000"/>
<path d="M13.7143 17.1429V13.7143H34.2857V17.1429H25.7143V34.2857H22.2857V17.1429H13.7143Z" fill="#FF0000"/>
</g>
<defs>
<clipPath id="clip0_3359_15">
<rect width="48" height="48" fill="white"/>
</clipPath>
</defs>
</svg>
